HIERARCHY
ROOT Hips
{
	OFFSET -3.958830 18.904000 13.208200
	CHANNELS 6 Xposition Yposition Zposition Zrotation Yrotation Xrotation 
	JOINT LHipJoint
	{
		OFFSET 0.000000 0.000000 0.000000
		CHANNELS 3 Zrotation Yrotation Xrotation
		JOINT LeftUpLeg
		{
			OFFSET 1.800000 -1.400000 0.085000
			CHANNELS 3 Zrotation Yrotation Xrotation
			JOINT LeftLeg
			{
				OFFSET 2.215000 -6.000000 0.000000
				CHANNELS 3 Zrotation Yrotation Xrotation
				JOINT LeftFoot
				{
					OFFSET 2.500000 -6.900000 0.000000
					CHANNELS 3 Zrotation Yrotation Xrotation
					JOINT LeftToeBase
					{
						OFFSET 0.200000 -0.500000 1.950000
						CHANNELS 3 Zrotation Yrotation Xrotation
						End Site
						{
							OFFSET 0.000000 0.000000 0.000000
						}
					}
				}
			}
		}
	}
	JOINT RHipJoint
	{
		OFFSET 0.000000 0.000000 0.000000
		CHANNELS 3 Zrotation Yrotation Xrotation
		JOINT RightUpLeg
		{
			OFFSET -1.800000 -1.400000 0.085000
			CHANNELS 3 Zrotation Yrotation Xrotation
			JOINT RightLeg
			{
				OFFSET -2.215000 -6.000000 0.000000
				CHANNELS 3 Zrotation Yrotation Xrotation
				JOINT RightFoot
				{
					OFFSET -2.500000 -6.900000 0.000000
					CHANNELS 3 Zrotation Yrotation Xrotation
					JOINT RightToeBase
					{
						OFFSET -0.200000 -0.500000 1.950000
						CHANNELS 3 Zrotation Yrotation Xrotation
						End Site
						{
							OFFSET 0.000000 0.000000 0.000000
						}
					}
				}
			}
		}
	}
	JOINT LowerBack
	{
		OFFSET 0.000000 0.000000 0.000000
		CHANNELS 3 Zrotation Yrotation Xrotation
		JOINT Spine
		{
			OFFSET -0.087000 1.940000 -0.288900
			CHANNELS 3 Zrotation Yrotation Xrotation
			JOINT Spine1
			{
				OFFSET 0.000000 1.950000 0.060000
				CHANNELS 3 Zrotation Yrotation Xrotation
				JOINT Neck
				{
					OFFSET 0.000000 0.000000 0.000000
					CHANNELS 3 Zrotation Yrotation Xrotation
					JOINT Neck1
					{
						OFFSET 0.000000 1.600000 0.340000
						CHANNELS 3 Zrotation Yrotation Xrotation
						JOINT Head
						{
							OFFSET 0.000000 1.667000 -0.240000
							CHANNELS 3 Zrotation Yrotation Xrotation
							End Site
							{
								OFFSET 0.000000 0.000000 0.000000
							}
						}
					}
				}
				JOINT LeftShoulder
				{
					OFFSET 0.000000 0.000000 0.000000
					CHANNELS 3 Zrotation Yrotation Xrotation
					JOINT LeftArm
					{
						OFFSET 2.700000 1.550000 -0.730000
						CHANNELS 3 Zrotation Yrotation Xrotation
						JOINT LeftForeArm
						{
							OFFSET 5.450000 0.000000 0.000000
							CHANNELS 3 Zrotation Yrotation Xrotation
							JOINT LeftHand
							{
								OFFSET 3.450000 0.000000 0.000000
								CHANNELS 3 Zrotation Yrotation Xrotation
								JOINT LeftHandIndex1
								{
									OFFSET 0.750000 0.000000 0.000000
									CHANNELS 3 Zrotation Yrotation Xrotation
									End Site
									{
										OFFSET 0.000000 0.000000 0.000000
									}
								}
							}
						}
					}
				}
				JOINT RightShoulder
				{
					OFFSET 0.000000 0.000000 0.000000
					CHANNELS 3 Zrotation Yrotation Xrotation
					JOINT RightArm
					{
						OFFSET -2.700000 1.550000 -0.730000
						CHANNELS 3 Zrotation Yrotation Xrotation
						JOINT RightForeArm
						{
							OFFSET -5.450000 0.000000 0.000000
							CHANNELS 3 Zrotation Yrotation Xrotation
							JOINT RightHand
							{
								OFFSET -3.450000 0.000000 0.000000
								CHANNELS 3 Zrotation Yrotation Xrotation
								JOINT RightHandIndex1
								{
									OFFSET -0.750000 0.000000 0.000000
									CHANNELS 3 Zrotation Yrotation Xrotation
									End Site
									{
										OFFSET 0.000000 0.000000 0.000000
									}
								}
							}
						}
					}
				}
			}
		}
	}
}
MOTION
Frames: 12
Frame Time: 0.016667
5.230180 15.962950 -3.178980 1.387477 -28.859930 14.051656 -15.979320 10.141464 5.250897 35.814101 -1.396412 -44.433236 -3.752563 16.255198 49.911369 0.586380 10.283083 0.637562 0.487000 0.387950 0.554300 18.438249 -6.034231 5.497642 -31.925270 4.514427 -64.150948 -1.978479 -13.067688 61.242084 -1.357295 -9.166722 1.009349 0.153650 -0.438580 0.091040 -3.451770 -4.005304 -10.453008 9.368221 -8.508063 40.493358 -3.908804 -4.121086 -7.474154 2.787920 -8.954148 -8.086976 -22.256222 9.044131 38.841994 -12.489680 4.900600 -21.720800 -37.697740 -10.042935 0.349215 -44.537560 -2.790579 -10.880510 -22.523496 -34.792500 3.813439 -3.120128 3.209724 0.529860 -0.320510 0.414940 -0.014620 32.192210 15.027999 5.735246 48.857400 -1.325299 -17.075544 22.025402 48.145347 5.458743 2.307423 -1.427297 0.055510 0.066810 -0.181120 -0.222730 
5.283840 15.852720 -3.114430 1.673975 -29.527981 14.364192 -15.852271 10.517012 4.761492 34.592235 -1.430845 -41.473470 -2.406148 13.878407 44.701067 0.388541 9.167617 1.004191 0.458500 0.354290 0.522570 18.491305 -6.369238 5.478756 -33.027356 3.371901 -62.892465 -1.818827 -13.475040 60.393756 -1.310131 -9.150910 1.016570 0.136930 -0.404350 0.093710 -3.641946 -3.931613 -10.198792 11.361274 -10.037717 37.570659 -5.794277 -5.489606 -8.272877 3.195328 -9.323884 -7.334717 -22.172332 9.273052 36.793268 -12.626990 5.617480 -20.356310 -38.883933 -8.158887 -0.325524 -45.134630 -1.426440 -10.419296 -18.001214 -28.719679 1.907035 -3.147490 3.190748 0.489340 -0.289340 0.377580 -0.004410 32.307829 12.563233 5.095736 49.419232 -2.867832 -17.071951 20.333276 45.889013 4.533737 2.333103 -1.417430 0.052070 0.045740 -0.179880 -0.210570 
5.320080 15.708510 -3.062380 1.831018 -29.936556 14.532707 -15.748192 10.843051 4.342806 34.252839 -1.392691 -38.119603 -2.294009 12.296542 39.165100 0.213513 8.232463 1.318826 0.420410 0.306750 0.490180 18.534311 -6.693945 5.376727 -33.431892 2.128920 -61.273571 -1.468105 -13.964360 59.415392 -1.254001 -9.139706 1.013951 0.123310 -0.359870 0.098700 -3.798060 -3.892536 -9.921504 13.197254 -11.444520 34.311724 -7.361483 -6.859923 -7.579030 3.548204 -9.708613 -6.772875 -21.968507 9.578977 34.231546 -12.931120 6.479080 -19.219640 -38.057825 -6.193187 -0.811421 -45.612188 -0.709065 -10.094375 -17.904137 -27.054019 1.687486 -3.209721 3.190245 0.454610 -0.246460 0.330080 -0.007670 30.583520 10.018015 4.662192 49.714815 -4.068108 -17.098230 21.490686 46.887882 5.134749 2.338451 -1.439298 0.034210 0.033440 -0.158830 -0.209810 
5.339650 15.536270 -3.027480 1.654065 -31.059206 14.997314 -15.703235 11.051639 4.056102 34.896770 -1.157526 -34.712794 -3.192209 11.675380 34.604913 0.128098 7.706139 1.512083 0.386600 0.272120 0.458960 18.547794 -6.879044 5.288061 -33.090337 1.476507 -60.410204 -1.421032 -14.030356 58.491657 -1.200299 -9.060456 1.046837 0.113330 -0.305500 0.102520 -3.881726 -3.900871 -9.709395 14.226510 -12.400621 31.430245 -8.372601 -7.979008 -6.220444 3.897977 -9.996309 -6.652015 -21.464761 10.086230 31.305670 -13.273110 7.596760 -18.681640 -36.431155 -4.831473 -0.658633 -46.338855 0.298528 -10.533661 -17.469266 -29.420106 1.871117 -3.261120 3.202204 0.421170 -0.200790 0.291070 0.001580 28.233638 8.396629 4.484857 49.077738 -4.355128 -16.640119 24.536546 49.251376 6.787620 2.338328 -1.484330 0.015230 0.039950 -0.144440 -0.202480 
5.346940 15.378050 -3.010810 1.551507 -32.385169 15.025118 -15.686298 11.247009 3.815153 35.351635 -1.045739 -31.709423 -3.641212 11.380071 32.117604 0.086931 7.466841 1.602248 0.385180 0.279210 0.444210 18.539516 -7.022235 5.197401 -32.090741 1.251072 -60.008895 -2.465253 -13.425950 58.249919 -1.165955 -8.958027 1.081172 0.130370 -0.269740 0.101250 -3.902489 -3.950421 -9.519269 14.688882 -12.894323 29.473687 -8.522897 -8.672461 -4.727663 3.910902 -10.487686 -6.667579 -21.698896 10.445831 28.488126 -13.084830 7.896530 -19.024940 -34.170474 -3.480783 -0.525353 -46.584287 0.760743 -10.626370 -17.535110 -32.303060 2.268460 -3.307205 3.204095 0.397260 -0.175670 0.267820 0.014530 26.032045 7.249580 4.314651 46.807937 -4.058799 -15.608470 27.774744 51.983104 8.900077 2.328917 -1.549534 0.003930 0.056750 -0.142140 -0.192890 
5.353210 15.238630 -3.009760 1.652723 -33.980528 14.670128 -15.693110 11.410877 3.578369 35.457065 -1.100830 -29.175239 -3.798078 11.327378 31.260043 0.080436 7.408405 1.624218 0.392760 0.300280 0.431370 18.520654 -7.055226 5.212780 -31.225219 1.107826 -60.597656 -3.850320 -12.831541 59.018174 -1.175816 -9.007078 1.067971 0.150200 -0.243440 0.106770 -3.884285 -4.077325 -9.407608 14.327090 -13.331818 28.248262 -8.355151 -9.412520 -3.261788 3.859684 -10.688457 -6.992516 -21.736566 11.071221 26.743424 -12.642860 8.385060 -19.092100 -31.863641 -3.133843 0.044856 -46.175044 1.238712 -10.491910 -13.634292 -33.832424 1.605129 -3.347774 3.191163 0.373950 -0.153880 0.253730 0.026980 24.020413 7.035627 4.265936 43.961413 -3.184652 -14.407282 29.806627 54.577154 10.715896 2.311885 -1.614159 0.004530 0.062970 -0.142190 -0.181900 
5.361460 15.145300 -3.033790 1.345424 -35.227500 14.302045 -15.739807 11.455422 3.505375 36.139032 -1.043953 -27.717874 -4.213179 11.727635 31.531187 0.096106 7.602262 1.560030 0.393330 0.306730 0.422240 18.488296 -6.949498 5.266074 -30.030908 1.495908 -61.927364 -6.044608 -11.919160 60.952530 -1.224511 -9.175068 1.028446 0.163230 -0.224730 0.103920 -3.814905 -4.275244 -9.417116 13.982632 -13.650818 28.401393 -7.419640 -9.777518 -2.353108 3.705779 -10.704217 -7.584308 -21.698918 11.188733 25.858206 -12.373540 8.471040 -19.312920 -30.017020 -3.936231 0.816294 -44.417291 1.448677 -9.572402 -9.155112 -32.367308 0.649505 -3.383663 3.139783 0.369860 -0.140870 0.243200 0.032620 22.709909 8.040465 4.528864 40.273648 -2.607233 -13.903412 27.438788 58.307776 10.961242 2.255381 -1.653645 -0.006150 0.078660 -0.136600 -0.180570 
5.363830 15.107850 -3.054960 1.169905 -36.667411 13.975767 -15.752644 11.507215 3.341206 36.105363 -1.077638 -26.462363 -3.918512 11.800762 31.992814 0.121671 7.668745 1.545600 0.387410 0.309510 0.414980 18.482345 -6.883269 5.387709 -29.012994 1.995422 -63.572609 -8.114866 -10.823306 62.308648 -1.255659 -9.280893 1.003343 0.167040 -0.201040 0.116100 -3.820378 -4.340316 -9.403039 13.938854 -14.076865 28.672929 -7.235371 -10.190246 -1.686900 3.691206 -10.484726 -7.978222 -21.015065 11.723566 25.027691 -12.490310 9.439310 -18.823890 -28.867721 -4.668295 1.615663 -41.051024 2.537893 -8.390473 -4.588111 -29.213429 -0.141105 -3.432122 3.118414 0.343070 -0.111650 0.231920 0.038970 21.726972 8.700977 4.548448 37.001187 -2.162080 -13.655912 22.456386 61.233175 9.555152 2.200740 -1.691357 -0.003690 0.072610 -0.136880 -0.173630 
5.346410 15.124240 -3.088040 1.033650 -38.176951 13.460171 -15.731850 11.654784 3.100435 35.707260 -1.123828 -24.400123 -3.507565 11.393606 30.958206 0.112743 7.474556 1.621297 0.382780 0.311780 0.417250 18.480280 -6.910771 5.493666 -27.641894 2.918914 -64.602896 -9.498543 -9.737674 62.980613 -1.269920 -9.274877 1.013295 0.167060 -0.191580 0.118920 -3.843686 -4.362163 -9.330496 13.757430 -14.617387 29.333710 -7.415769 -10.720277 -1.017193 3.704044 -10.481718 -8.546966 -20.873054 12.208751 24.108863 -12.989560 10.302220 -19.031030 -27.562171 -5.432013 2.617798 -36.920000 4.031070 -6.525082 -0.166789 -23.028018 -0.609148 -3.483260 3.069474 0.331080 -0.099350 0.232000 0.043030 20.532512 9.564155 4.553254 34.125002 -1.600550 -13.569976 15.909950 62.666079 6.827175 2.153874 -1.681175 -0.004270 0.075050 -0.141100 -0.170710 
5.294900 15.171390 -3.093050 1.230235 -38.922718 12.848509 -15.681248 11.858619 2.899840 35.273203 -1.267333 -21.581612 -3.795319 10.708949 27.752045 0.078527 7.094227 1.772992 0.339190 0.263290 0.395670 18.476880 -7.087626 5.429118 -26.766514 3.088384 -63.815675 -9.622358 -9.334687 62.188939 -1.216109 -9.130616 1.065564 0.142070 -0.160470 0.119150 -3.873237 -4.351619 -9.177348 13.863429 -15.335109 28.849716 -8.161583 -11.487916 0.038435 3.981837 -10.469142 -9.215999 -20.785914 12.875097 23.255418 -13.928540 11.646600 -18.053170 -25.646401 -5.483409 3.640984 -33.589888 6.226743 -4.941641 2.560909 -16.941575 -0.616117 -3.561712 3.023705 0.311780 -0.066330 0.207170 0.038420 18.167591 9.647849 4.596054 32.115499 -1.451465 -13.190303 13.344020 63.270405 5.881949 2.126969 -1.688094 -0.021880 0.071790 -0.125260 -0.172960 
5.213630 15.245110 -3.099570 1.660766 -39.136183 12.662583 -15.636177 11.949992 2.823594 35.060804 -1.540520 -18.488011 -4.994167 9.824847 22.358104 0.048173 6.625897 1.962226 0.316080 0.239950 0.369660 18.472340 -7.248977 5.292557 -26.205824 2.883150 -62.581448 -8.880929 -9.415317 60.656653 -1.141821 -8.920827 1.129894 0.132240 -0.127380 0.126590 -3.907751 -4.312655 -9.011260 14.012282 -15.991592 27.521233 -8.966631 -12.242052 1.129754 4.079460 -10.737851 -9.818912 -21.164611 13.128884 21.380756 -14.065650 12.201770 -17.263850 -22.754831 -4.630764 4.289226 -31.030531 7.892031 -3.448999 3.120576 -9.909398 -0.380659 -3.652694 2.999405 0.282370 -0.036460 0.180160 0.043830 15.212919 8.964747 4.733398 29.851829 -2.115892 -12.157325 17.991424 63.257800 8.474399 2.132671 -1.770876 -0.025720 0.063020 -0.116430 -0.163580 
5.147340 15.365240 -3.106280 1.980073 -38.662386 12.672250 -15.600361 11.908089 2.943659 35.066161 -1.994429 -15.903726 -6.645707 8.981486 16.696915 0.058272 6.341298 2.095160 0.288030 0.214470 0.335690 18.465554 -7.396388 5.061166 -26.164266 2.179209 -60.568814 -6.649691 -10.258772 58.077298 -1.031275 -8.642041 1.210111 0.123980 -0.080010 0.136200 -3.946928 -4.212649 -8.883208 14.436559 -16.650643 25.977189 -9.810158 -12.938695 2.345215 4.135735 -10.691418 -10.264994 -20.928117 13.367632 20.194074 -13.522450 12.777440 -15.643840 -19.812030 -3.771283 4.805319 -28.216046 9.402078 -2.604147 2.888285 -5.129642 -0.269662 -3.740633 3.007924 0.239170 0.006850 0.141960 0.048400 12.214340 7.999156 4.845415 26.773516 -2.918405 -10.802932 23.964811 63.548522 11.848848 2.133870 -1.882716 -0.029210 0.052240 -0.102360 -0.150690 
